<?xml version="1.0" standalone="no"?>
<!DOCTYPE svg PUBLIC "-//W3C//DTD SVG 20010904//EN"
 "http://www.w3.org/TR/2001/REC-SVG-20010904/DTD/svg10.dtd">
<svg version="1.0" xmlns="http://www.w3.org/2000/svg"
 width="327.000000pt" height="327.000000pt" viewBox="0 0 327.000000 327.000000"
 preserveAspectRatio="xMidYMid meet">
<metadata>
Created by potrace 1.14, written by Peter Selinger 2001-2017
</metadata>
<g transform="translate(0.000000,327.000000) scale(0.100000,-0.100000)"
fill="#000000" stroke="none">
<path d="M422 3250 c-105 -28 -167 -64 -252 -150 -87 -86 -122 -147 -150 -256
-19 -75 -20 -114 -20 -1209 0 -1095 1 -1134 20 -1209 28 -109 63 -170 150
-256 86 -87 147 -122 256 -150 75 -19 114 -20 1209 -20 1095 0 1134 1 1209 20
109 28 170 63 256 150 87 86 122 147 150 256 19 75 20 114 20 1209 0 1095 -1
1134 -20 1209 -28 109 -63 170 -150 256 -86 87 -147 122 -256 150 -75 19 -113
20 -1213 19 -1086 0 -1139 -1 -1209 -19z m538 -810 l0 -70 -29 0 c-61 0 -147
-46 -173 -93 -8 -15 -15 -95 -19 -237 -7 -233 -14 -267 -67 -323 -30 -31 -80
-60 -127 -72 l-30 -7 25 -10 c14 -6 41 -17 62 -25 46 -19 92 -67 114 -118 14
-32 18 -81 22 -250 3 -151 8 -218 18 -237 26 -51 111 -98 175 -98 l29 0 0 -71
0 -71 -27 6 c-16 3 -53 8 -84 12 -76 8 -185 67 -221 119 -45 67 -50 98 -55
315 -2 115 -8 222 -15 243 -20 67 -90 107 -185 107 l-43 0 0 70 c0 78 -6 72
90 85 61 8 105 36 129 82 16 33 20 66 24 253 3 141 9 228 18 253 31 91 149
176 269 196 106 17 100 20 100 -59z m1440 60 c130 -21 247 -103 279 -197 9
-25 15 -112 18 -253 4 -187 8 -220 24 -253 24 -46 68 -74 129 -82 96 -13 90
-7 90 -85 l0 -70 -42 0 c-96 0 -166 -40 -186 -107 -7 -21 -13 -128 -15 -243
-5 -217 -10 -248 -55 -315 -36 -52 -145 -111 -221 -119 -31 -4 -68 -9 -83 -12
l-28 -6 0 71 0 71 29 0 c64 0 149 47 175 98 10 19 15 86 18 237 4 169 8 218
22 250 22 51 68 99 114 118 21 8 48 19 62 25 l25 10 -30 7 c-47 12 -97 41
-127 72 -53 56 -60 90 -67 323 -4 142 -11 222 -19 237 -26 47 -112 93 -173 93
l-29 0 0 70 c0 49 4 70 13 70 6 0 41 -5 77 -10z m-642 -352 c7 -7 12 -25 12
-40 l0 -28 144 0 c119 0 145 3 150 15 3 8 21 23 40 32 67 32 146 -17 146 -91
0 -38 -48 -86 -92 -93 -33 -5 -41 -2 -74 31 -35 35 -38 36 -107 35 -70 0 -71
0 -47 -16 14 -9 55 -47 92 -84 69 -71 119 -157 142 -245 10 -40 17 -50 37 -52
13 -2 30 -9 37 -14 16 -14 17 -159 0 -176 -7 -7 -43 -12 -90 -12 -92 0 -98 6
-98 100 0 73 12 100 45 100 l24 0 -18 53 c-48 137 -137 244 -255 303 l-71 35
-6 -32 c-4 -17 -13 -35 -21 -40 -21 -14 -192 -11 -206 3 -7 7 -12 24 -12 40
l0 27 -42 -15 c-128 -45 -238 -163 -289 -311 -23 -68 -23 -63 -1 -63 33 0 42
-22 42 -101 0 -54 -4 -80 -14 -88 -9 -8 -43 -11 -93 -9 l-78 3 0 95 0 95 31 3
c28 3 33 8 43 45 22 88 86 200 149 261 33 32 73 67 88 77 l29 19 -86 0 c-80 0
-88 -2 -102 -23 -20 -30 -69 -51 -101 -43 -14 3 -37 17 -52 29 -38 33 -38 101
0 134 15 12 38 26 52 29 32 8 81 -13 101 -43 15 -22 19 -23 169 -23 l154 0 0
33 c0 51 13 57 120 57 61 0 100 -4 108 -12z m-144 -374 c14 -5 16 -34 16 -214
0 -180 -2 -213 -17 -239 -18 -30 -17 -31 4 -53 19 -19 26 -20 48 -10 29 13 34
52 10 72 -12 10 -15 48 -15 226 l0 214 28 0 c26 0 29 -5 41 -52 20 -78 65
-188 131 -320 l59 -118 -46 -120 -47 -120 -176 0 -177 0 -48 120 -49 119 71
148 c39 81 85 189 102 238 17 50 33 96 36 103 5 14 7 14 29 6z m206 -809 l0
-35 -175 0 -175 0 0 35 0 35 175 0 175 0 0 -35z"/>
</g>
</svg>
