<svg width="24" height="24" viewBox="0 0 24 24" fill="none" xmlns="http://www.w3.org/2000/svg">
<path d="M5 11C4.44772 11 4 11.4477 4 12C4 12.5523 4.44772 13 5 13V11ZM19 12L19.7071 12.7071C20.0976 12.3166 20.0976 11.6834 19.7071 11.2929L19 12ZM13.7071 5.29289C13.3166 4.90237 12.6834 4.90237 12.2929 5.29289C11.9024 5.68342 11.9024 6.31658 12.2929 6.70711L13.7071 5.29289ZM12.2929 17.2929C11.9024 17.6834 11.9024 18.3166 12.2929 18.7071C12.6834 19.0976 13.3166 19.0976 13.7071 18.7071L12.2929 17.2929ZM5 13H19V11H5V13ZM12.2929 6.70711L18.2929 12.7071L19.7071 11.2929L13.7071 5.29289L12.2929 6.70711ZM18.2929 11.2929L12.2929 17.2929L13.7071 18.7071L19.7071 12.7071L18.2929 11.2929Z" fill="#B3B3B3"/>
</svg>
